<?xml version="1.0" standalone="no"?>
<!DOCTYPE svg PUBLIC "-//W3C//DTD SVG 20010904//EN"
 "http://www.w3.org/TR/2001/REC-SVG-20010904/DTD/svg10.dtd">
<svg version="1.0" xmlns="http://www.w3.org/2000/svg"
 width="500.000000pt" height="500.000000pt" viewBox="0 0 500.000000 500.000000"
 preserveAspectRatio="xMidYMid meet">
<metadata>
Created by potrace 1.14, written by Peter Selinger 2001-2017
</metadata>
<g transform="translate(0.000000,500.000000) scale(0.100000,-0.100000)"
fill="#000000" stroke="none">
<path d="M2360 4929 c-148 -23 -388 -124 -555 -235 -162 -107 -263 -200 -850
-788 -646 -646 -650 -651 -698 -801 -20 -63 -22 -90 -21 -265 0 -219 11 -281
68 -403 90 -193 261 -338 454 -383 85 -20 276 -15 341 10 24 9 46 15 48 13 2
-2 3 -82 4 -178 0 -96 5 -205 11 -244 40 -265 210 -480 456 -573 59 -23 82
-26 202 -26 107 -1 146 3 188 18 29 10 56 16 59 13 3 -3 5 -82 5 -174 0 -92 4
-202 10 -243 37 -267 224 -499 468 -580 89 -30 232 -37 329 -16 96 20 204 74
276 139 82 73 1132 1202 1220 1312 207 257 337 526 380 783 14 82 16 145 13
329 -5 211 -7 235 -32 316 -72 239 -182 416 -384 620 -151 154 -302 259 -481
336 l-83 36 -38 88 c-75 174 -173 315 -327 470 -206 207 -452 357 -675 413
-78 19 -300 26 -388 13z m258 -120 c245 -26 481 -150 706 -368 158 -154 300
-369 352 -535 l17 -55 76 -26 c183 -65 333 -165 501 -334 455 -457 513 -949
173 -1466 -101 -153 -193 -251 -795 -851 -621 -618 -621 -618 -757 -658 -70
-20 -218 -21 -296 -1 -251 66 -433 325 -410 585 7 83 34 172 72 240 16 27 259
279 614 635 387 389 594 604 608 632 28 56 27 97 -1 117 -29 20 -51 20 -96 -1
-23 -10 -263 -241 -637 -613 -644 -639 -643 -639 -780 -675 -74 -19 -213 -19
-285 0 -286 76 -467 368 -406 655 35 164 17 143 671 800 390 392 600 609 614
637 51 101 -5 166 -102 117 -18 -9 -302 -285 -632 -613 -576 -574 -603 -599
-675 -633 -104 -50 -164 -62 -279 -55 -191 10 -344 99 -444 258 -61 97 -81
168 -81 294 -1 129 21 207 83 302 52 79 1229 1250 1336 1329 239 177 451 266
685 288 19 1 43 4 53 4 10 1 61 -3 115 -9z"/>
</g>
</svg>
