<?xml version="1.0" encoding="UTF-8"?>
<svg id="Layer_2" data-name="Layer 2" xmlns="http://www.w3.org/2000/svg" viewBox="0 0 332 350.83">
  <defs>
    <style>
      .cls-1 {
        fill: #ffc931;
      }

      .cls-1, .cls-2, .cls-3 {
        stroke-width: 0px;
      }

      .cls-2 {
        fill: #044389;
      }

      .cls-3 {
        fill: #73B7F9;
      }
    </style>
  </defs>
  <g id="Layer_1-2" data-name="Layer 1">
    <g>
      <path class="cls-2" d="M328.71,150.65C321.33,67.71,250.38,0,164.93,0,66.4,0,.5,80.98.5,164.91c0,1.59.03,3.18.08,4.76-.38,4.54-.58,9.09-.58,13.66,0,90.69,73.3,167.5,166,167.5,97.63,0,166-81.44,166-167.5,0-11.14-1.14-22.07-3.29-32.68ZM164.93,5c87.56,0,159.44,73.33,159.44,159.91s-65.67,159.91-159.44,159.91S5.49,251.5,5.49,164.91C5.49,83.53,69.38,5,164.93,5Z"/>
      <path class="cls-3" d="M164.93,324.83c93.77,0,159.44-77.75,159.44-159.91,0-86.59-71.88-159.91-159.44-159.91C69.38,5,5.49,83.53,5.49,164.91c0,86.59,70.4,159.91,159.44,159.91ZM241.01,213.94l-44.95,48.29c-5.43,5.83-12.68,9.04-20.42,9.04s-15.18-3.28-20.72-9.23c-7.12-7.65-9.84-18.22-8.17-28.05-.56-2.61-.75-5.28-.6-7.92-3.33,1.4-6.9,2.14-10.6,2.14-7.82,0-15.18-3.28-20.72-9.23-6.69-7.18-9.5-16.95-8.43-26.25-.57-3.26-.59-6.59-.06-9.84-3.39,1.47-7.06,2.25-10.84,2.25-7.85,0-15.25-3.31-20.84-9.31-5.48-5.89-8.52-13.74-8.56-22.11,0-.57.01-1.14.04-1.71-.21-1.42-.33-2.86-.33-4.32-.04-7.83,2.94-15.14,8.4-20.6l45.02-45.02c8.5-8.5,17.1-14.67,25.72-18.48,6.98-3.35,13.97-5.05,20.95-5.05,8.27,0,16.34,2.43,24.14,7.21,5.21,2.99,10.3,6.94,15.24,11.88,7.42,7.41,12.78,15.81,15.64,24.44,8.7,2.93,17.13,8.32,24.51,15.7,13.4,13.4,19.55,27.9,18.52,42.76,1.19,17.55-6.46,35.71-22.93,53.4Z"/>
      <path class="cls-2" d="M245.41,117.78c-7.38-7.38-15.8-12.77-24.51-15.7-2.86-8.63-8.22-17.03-15.64-24.44-4.94-4.94-10.03-8.89-15.24-11.88-7.8-4.78-15.87-7.21-24.14-7.21-6.97,0-13.97,1.7-20.95,5.05-8.62,3.82-17.22,9.98-25.72,18.48l-45.02,45.02c-5.46,5.46-8.44,12.77-8.4,20.6,0,1.46.12,2.9.33,4.32-.02.57-.04,1.14-.04,1.71.04,8.37,3.08,16.22,8.56,22.11,5.59,6,12.99,9.31,20.84,9.31,3.78,0,7.45-.78,10.84-2.25-.53,3.25-.52,6.58.06,9.84-1.07,9.3,1.74,19.07,8.43,26.25,5.54,5.95,12.9,9.23,20.72,9.23,3.69,0,7.27-.75,10.6-2.14-.15,2.65.04,5.31.6,7.92-1.67,9.83,1.05,20.41,8.17,28.05,5.54,5.95,12.9,9.23,20.72,9.23s14.99-3.21,20.42-9.04l44.95-48.29c16.47-17.69,24.12-35.85,22.93-53.4,1.03-14.86-5.12-29.36-18.52-42.76ZM158.28,245.14c-9.49-9.49-9.58-24.9-.26-34.22l45.28-45.28c4.01-4.01,6.88-8.1,4.61-10.36-2.35-2.35-5.83.09-10.36,4.62l-45.28,45.28c-9.32,9.32-24.64,9.32-34.13-.17-9.49-9.49-9.58-24.9-.26-34.22l45.28-45.28c4.01-4.01,6.88-8.1,4.62-10.36-2.35-2.35-5.83.09-10.36,4.62l-45.28,45.28c-9.32,9.32-24.64,9.32-34.22-.26-9.4-9.4-9.49-24.82-.17-34.13l45.02-45.02c20.9-20.9,49.55-33.87,78.98-4.44,8.1,8.1,12.97,16.81,15.15,24.9,8.19,2.26,16.89,7.14,24.99,15.24,29.52,29.52,16.46,58.08-4.44,78.98l-45.02,45.02c-9.32,9.32-24.64,9.32-34.13-.17Z"/>
      <path class="cls-1" d="M237.44,200.29c20.9-20.9,33.96-49.46,4.44-78.98-8.1-8.1-16.81-12.97-24.99-15.24-2.18-8.1-7.05-16.81-15.15-24.9-29.43-29.43-58.08-16.46-78.98,4.44l-45.02,45.02c-9.32,9.32-9.23,24.73.17,34.13,9.58,9.58,24.91,9.58,34.22.26l45.28-45.28c4.53-4.53,8.01-6.97,10.36-4.62,2.26,2.26-.61,6.36-4.62,10.36l-45.28,45.28c-9.32,9.32-9.23,24.73.26,34.22,9.49,9.49,24.82,9.49,34.13.17l45.28-45.28c4.53-4.53,8.01-6.97,10.36-4.62,2.26,2.26-.61,6.36-4.61,10.36l-45.28,45.28c-9.32,9.32-9.23,24.73.26,34.22,9.49,9.49,24.82,9.49,34.13.17l45.02-45.02Z"/>
    </g>
  </g>
</svg>